solid OpenSCAD_Model
  facet normal -1 0 0
    outer loop
      vertex 0 0 0
      vertex 0 20 20
      vertex 0 20 0
    endloop
  endfacet
  facet normal -1 -0 0
    outer loop
      vertex 0 20 20
      vertex 0 0 0
      vertex 0 0 20
    endloop
  endfacet
  facet normal -0 0 1
    outer loop
      vertex 0 20 20
      vertex 20 0 20
      vertex 20 20 20
    endloop
  endfacet
  facet normal 0 0 1
    outer loop
      vertex 20 0 20
      vertex 0 20 20
      vertex 0 0 20
    endloop
  endfacet
  facet normal 1 -0 0
    outer loop
      vertex 20 0 20
      vertex 20 20 0
      vertex 20 20 20
    endloop
  endfacet
  facet normal 1 0 0
    outer loop
      vertex 20 20 0
      vertex 20 0 20
      vertex 20 0 0
    endloop
  endfacet
  facet normal 0 1 -0
    outer loop
      vertex 20 20 0
      vertex 0 20 20
      vertex 20 20 20
    endloop
  endfacet
  facet normal 0 1 0
    outer loop
      vertex 0 20 20
      vertex 20 20 0
      vertex 0 20 0
    endloop
  endfacet
  facet normal 0 0 -1
    outer loop
      vertex 0 0 0
      vertex 20 20 0
      vertex 20 0 0
    endloop
  endfacet
  facet normal -0 0 -1
    outer loop
      vertex 20 20 0
      vertex 0 0 0
      vertex 0 20 0
    endloop
  endfacet
  facet normal 0 -1 0
    outer loop
      vertex 0 0 0
      vertex 20 0 20
      vertex 0 0 20
    endloop
  endfacet
  facet normal 0 -1 -0
    outer loop
      vertex 20 0 20
      vertex 0 0 0
      vertex 20 0 0
    endloop
  endfacet
  facet normal -1 0 0
    outer loop
      vertex 40 0 0
      vertex 40 20 20
      vertex 40 20 0
    endloop
  endfacet
  facet normal -1 -0 0
    outer loop
      vertex 40 20 20
      vertex 40 0 0
      vertex 40 0 20
    endloop
  endfacet
  facet normal -0 0 1
    outer loop
      vertex 40 20 20
      vertex 60 0 20
      vertex 60 20 20
    endloop
  endfacet
  facet normal 0 0 1
    outer loop
      vertex 60 0 20
      vertex 40 20 20
      vertex 40 0 20
    endloop
  endfacet
  facet normal 1 -0 0
    outer loop
      vertex 60 0 20
      vertex 60 20 0
      vertex 60 20 20
    endloop
  endfacet
  facet normal 1 0 0
    outer loop
      vertex 60 20 0
      vertex 60 0 20
      vertex 60 0 0
    endloop
  endfacet
  facet normal 0 1 -0
    outer loop
      vertex 60 20 0
      vertex 40 20 20
      vertex 60 20 20
    endloop
  endfacet
  facet normal 0 1 0
    outer loop
      vertex 40 20 20
      vertex 60 20 0
      vertex 40 20 0
    endloop
  endfacet
  facet normal 0 0 -1
    outer loop
      vertex 40 0 0
      vertex 60 20 0
      vertex 60 0 0
    endloop
  endfacet
  facet normal -0 0 -1
    outer loop
      vertex 60 20 0
      vertex 40 0 0
      vertex 40 20 0
    endloop
  endfacet
  facet normal 0 -1 0
    outer loop
      vertex 40 0 0
      vertex 60 0 20
      vertex 40 0 20
    endloop
  endfacet
  facet normal 0 -1 -0
    outer loop
      vertex 60 0 20
      vertex 40 0 0
      vertex 60 0 0
    endloop
  endfacet
  facet normal -1 0 0
    outer loop
      vertex 80 0 0
      vertex 80 20 20
      vertex 80 20 0
    endloop
  endfacet
  facet normal -1 -0 0
    outer loop
      vertex 80 20 20
      vertex 80 0 0
      vertex 80 0 20
    endloop
  endfacet
  facet normal -0 0 1
    outer loop
      vertex 80 20 20
      vertex 100 0 20
      vertex 100 20 20
    endloop
  endfacet
  facet normal 0 0 1
    outer loop
      vertex 100 0 20
      vertex 80 20 20
      vertex 80 0 20
    endloop
  endfacet
  facet normal 1 -0 0
    outer loop
      vertex 100 0 20
      vertex 100 20 0
      vertex 100 20 20
    endloop
  endfacet
  facet normal 1 0 0
    outer loop
      vertex 100 20 0
      vertex 100 0 20
      vertex 100 0 0
    endloop
  endfacet
  facet normal 0 1 -0
    outer loop
      vertex 100 20 0
      vertex 80 20 20
      vertex 100 20 20
    endloop
  endfacet
  facet normal 0 1 0
    outer loop
      vertex 80 20 20
      vertex 100 20 0
      vertex 80 20 0
    endloop
  endfacet
  facet normal 0 0 -1
    outer loop
      vertex 80 0 0
      vertex 100 20 0
      vertex 100 0 0
    endloop
  endfacet
  facet normal -0 0 -1
    outer loop
      vertex 100 20 0
      vertex 80 0 0
      vertex 80 20 0
    endloop
  endfacet
  facet normal 0 -1 0
    outer loop
      vertex 80 0 0
      vertex 100 0 20
      vertex 80 0 20
    endloop
  endfacet
  facet normal 0 -1 -0
    outer loop
      vertex 100 0 20
      vertex 80 0 0
      vertex 100 0 0
    endloop
  endfacet
  facet normal -1 0 0
    outer loop
      vertex 0 40 0
      vertex 0 60 20
      vertex 0 60 0
    endloop
  endfacet
  facet normal -1 -0 0
    outer loop
      vertex 0 60 20
      vertex 0 40 0
      vertex 0 40 20
    endloop
  endfacet
  facet normal -0 0 1
    outer loop
      vertex 0 60 20
      vertex 20 40 20
      vertex 20 60 20
    endloop
  endfacet
  facet normal 0 0 1
    outer loop
      vertex 20 40 20
      vertex 0 60 20
      vertex 0 40 20
    endloop
  endfacet
  facet normal 1 -0 0
    outer loop
      vertex 20 40 20
      vertex 20 60 0
      vertex 20 60 20
    endloop
  endfacet
  facet normal 1 0 0
    outer loop
      vertex 20 60 0
      vertex 20 40 20
      vertex 20 40 0
    endloop
  endfacet
  facet normal 0 1 -0
    outer loop
      vertex 20 60 0
      vertex 0 60 20
      vertex 20 60 20
    endloop
  endfacet
  facet normal 0 1 0
    outer loop
      vertex 0 60 20
      vertex 20 60 0
      vertex 0 60 0
    endloop
  endfacet
  facet normal 0 0 -1
    outer loop
      vertex 0 40 0
      vertex 20 60 0
      vertex 20 40 0
    endloop
  endfacet
  facet normal -0 0 -1
    outer loop
      vertex 20 60 0
      vertex 0 40 0
      vertex 0 60 0
    endloop
  endfacet
  facet normal 0 -1 0
    outer loop
      vertex 0 40 0
      vertex 20 40 20
      vertex 0 40 20
    endloop
  endfacet
  facet normal 0 -1 -0
    outer loop
      vertex 20 40 20
      vertex 0 40 0
      vertex 20 40 0
    endloop
  endfacet
  facet normal -1 0 0
    outer loop
      vertex 40 40 0
      vertex 40 60 20
      vertex 40 60 0
    endloop
  endfacet
  facet normal -1 -0 0
    outer loop
      vertex 40 60 20
      vertex 40 40 0
      vertex 40 40 20
    endloop
  endfacet
  facet normal -0 0 1
    outer loop
      vertex 40 60 20
      vertex 60 40 20
      vertex 60 60 20
    endloop
  endfacet
  facet normal 0 0 1
    outer loop
      vertex 60 40 20
      vertex 40 60 20
      vertex 40 40 20
    endloop
  endfacet
  facet normal 1 -0 0
    outer loop
      vertex 60 40 20
      vertex 60 60 0
      vertex 60 60 20
    endloop
  endfacet
  facet normal 1 0 0
    outer loop
      vertex 60 60 0
      vertex 60 40 20
      vertex 60 40 0
    endloop
  endfacet
  facet normal 0 1 -0
    outer loop
      vertex 60 60 0
      vertex 40 60 20
      vertex 60 60 20
    endloop
  endfacet
  facet normal 0 1 0
    outer loop
      vertex 40 60 20
      vertex 60 60 0
      vertex 40 60 0
    endloop
  endfacet
  facet normal 0 0 -1
    outer loop
      vertex 40 40 0
      vertex 60 60 0
      vertex 60 40 0
    endloop
  endfacet
  facet normal -0 0 -1
    outer loop
      vertex 60 60 0
      vertex 40 40 0
      vertex 40 60 0
    endloop
  endfacet
  facet normal 0 -1 0
    outer loop
      vertex 40 40 0
      vertex 60 40 20
      vertex 40 40 20
    endloop
  endfacet
  facet normal 0 -1 -0
    outer loop
      vertex 60 40 20
      vertex 40 40 0
      vertex 60 40 0
    endloop
  endfacet
  facet normal -1 0 0
    outer loop
      vertex 80 40 0
      vertex 80 60 20
      vertex 80 60 0
    endloop
  endfacet
  facet normal -1 -0 0
    outer loop
      vertex 80 60 20
      vertex 80 40 0
      vertex 80 40 20
    endloop
  endfacet
  facet normal -0 0 1
    outer loop
      vertex 80 60 20
      vertex 100 40 20
      vertex 100 60 20
    endloop
  endfacet
  facet normal 0 0 1
    outer loop
      vertex 100 40 20
      vertex 80 60 20
      vertex 80 40 20
    endloop
  endfacet
  facet normal 1 -0 0
    outer loop
      vertex 100 40 20
      vertex 100 60 0
      vertex 100 60 20
    endloop
  endfacet
  facet normal 1 0 0
    outer loop
      vertex 100 60 0
      vertex 100 40 20
      vertex 100 40 0
    endloop
  endfacet
  facet normal 0 1 -0
    outer loop
      vertex 100 60 0
      vertex 80 60 20
      vertex 100 60 20
    endloop
  endfacet
  facet normal 0 1 0
    outer loop
      vertex 80 60 20
      vertex 100 60 0
      vertex 80 60 0
    endloop
  endfacet
  facet normal 0 0 -1
    outer loop
      vertex 80 40 0
      vertex 100 60 0
      vertex 100 40 0
    endloop
  endfacet
  facet normal -0 0 -1
    outer loop
      vertex 100 60 0
      vertex 80 40 0
      vertex 80 60 0
    endloop
  endfacet
  facet normal 0 -1 0
    outer loop
      vertex 80 40 0
      vertex 100 40 20
      vertex 80 40 20
    endloop
  endfacet
  facet normal 0 -1 -0
    outer loop
      vertex 100 40 20
      vertex 80 40 0
      vertex 100 40 0
    endloop
  endfacet
  facet normal -1 0 0
    outer loop
      vertex 0 80 0
      vertex 0 100 20
      vertex 0 100 0
    endloop
  endfacet
  facet normal -1 -0 0
    outer loop
      vertex 0 100 20
      vertex 0 80 0
      vertex 0 80 20
    endloop
  endfacet
  facet normal -0 0 1
    outer loop
      vertex 0 100 20
      vertex 20 80 20
      vertex 20 100 20
    endloop
  endfacet
  facet normal 0 0 1
    outer loop
      vertex 20 80 20
      vertex 0 100 20
      vertex 0 80 20
    endloop
  endfacet
  facet normal 1 -0 0
    outer loop
      vertex 20 80 20
      vertex 20 100 0
      vertex 20 100 20
    endloop
  endfacet
  facet normal 1 0 0
    outer loop
      vertex 20 100 0
      vertex 20 80 20
      vertex 20 80 0
    endloop
  endfacet
  facet normal 0 0 -1
    outer loop
      vertex 0 80 0
      vertex 20 100 0
      vertex 20 80 0
    endloop
  endfacet
  facet normal -0 0 -1
    outer loop
      vertex 20 100 0
      vertex 0 80 0
      vertex 0 100 0
    endloop
  endfacet
  facet normal 0 -1 0
    outer loop
      vertex 0 80 0
      vertex 20 80 20
      vertex 0 80 20
    endloop
  endfacet
  facet normal 0 -1 -0
    outer loop
      vertex 20 80 20
      vertex 0 80 0
      vertex 20 80 0
    endloop
  endfacet
  facet normal 0 1 -0
    outer loop
      vertex 20 100 0
      vertex 0 100 20
      vertex 20 100 20
    endloop
  endfacet
  facet normal 0 1 0
    outer loop
      vertex 0 100 20
      vertex 20 100 0
      vertex 0 100 0
    endloop
  endfacet
  facet normal -1 0 0
    outer loop
      vertex 40 80 0
      vertex 40 100 20
      vertex 40 100 0
    endloop
  endfacet
  facet normal -1 -0 0
    outer loop
      vertex 40 100 20
      vertex 40 80 0
      vertex 40 80 20
    endloop
  endfacet
  facet normal -0 0 1
    outer loop
      vertex 40 100 20
      vertex 60 80 20
      vertex 60 100 20
    endloop
  endfacet
  facet normal 0 0 1
    outer loop
      vertex 60 80 20
      vertex 40 100 20
      vertex 40 80 20
    endloop
  endfacet
  facet normal 1 -0 0
    outer loop
      vertex 60 80 20
      vertex 60 100 0
      vertex 60 100 20
    endloop
  endfacet
  facet normal 1 0 0
    outer loop
      vertex 60 100 0
      vertex 60 80 20
      vertex 60 80 0
    endloop
  endfacet
  facet normal 0 1 -0
    outer loop
      vertex 60 100 0
      vertex 40 100 20
      vertex 60 100 20
    endloop
  endfacet
  facet normal 0 1 0
    outer loop
      vertex 40 100 20
      vertex 60 100 0
      vertex 40 100 0
    endloop
  endfacet
  facet normal 0 0 -1
    outer loop
      vertex 40 80 0
      vertex 60 100 0
      vertex 60 80 0
    endloop
  endfacet
  facet normal -0 0 -1
    outer loop
      vertex 60 100 0
      vertex 40 80 0
      vertex 40 100 0
    endloop
  endfacet
  facet normal 0 -1 0
    outer loop
      vertex 40 80 0
      vertex 60 80 20
      vertex 40 80 20
    endloop
  endfacet
  facet normal 0 -1 -0
    outer loop
      vertex 60 80 20
      vertex 40 80 0
      vertex 60 80 0
    endloop
  endfacet
  facet normal -1 0 0
    outer loop
      vertex 80 80 0
      vertex 80 100 20
      vertex 80 100 0
    endloop
  endfacet
  facet normal -1 -0 0
    outer loop
      vertex 80 100 20
      vertex 80 80 0
      vertex 80 80 20
    endloop
  endfacet
  facet normal -0 0 1
    outer loop
      vertex 80 100 20
      vertex 100 80 20
      vertex 100 100 20
    endloop
  endfacet
  facet normal 0 0 1
    outer loop
      vertex 100 80 20
      vertex 80 100 20
      vertex 80 80 20
    endloop
  endfacet
  facet normal 1 -0 0
    outer loop
      vertex 100 80 20
      vertex 100 100 0
      vertex 100 100 20
    endloop
  endfacet
  facet normal 1 0 0
    outer loop
      vertex 100 100 0
      vertex 100 80 20
      vertex 100 80 0
    endloop
  endfacet
  facet normal 0 0 -1
    outer loop
      vertex 80 80 0
      vertex 100 100 0
      vertex 100 80 0
    endloop
  endfacet
  facet normal -0 0 -1
    outer loop
      vertex 100 100 0
      vertex 80 80 0
      vertex 80 100 0
    endloop
  endfacet
  facet normal 0 -1 0
    outer loop
      vertex 80 80 0
      vertex 100 80 20
      vertex 80 80 20
    endloop
  endfacet
  facet normal 0 -1 -0
    outer loop
      vertex 100 80 20
      vertex 80 80 0
      vertex 100 80 0
    endloop
  endfacet
  facet normal 0 1 -0
    outer loop
      vertex 100 100 0
      vertex 80 100 20
      vertex 100 100 20
    endloop
  endfacet
  facet normal 0 1 0
    outer loop
      vertex 80 100 20
      vertex 100 100 0
      vertex 80 100 0
    endloop
  endfacet
endsolid OpenSCAD_Model
